<?xml version="1.0" encoding="UTF-8" standalone="no"?><svg xmlns="http://www.w3.org/2000/svg" xmlns:xlink="http://www.w3.org/1999/xlink" contentScriptType="application/ecmascript" contentStyleType="text/css" height="1275px" preserveAspectRatio="none" style="width:1021px;height:1275px;" version="1.1" viewBox="0 0 1021 1275" width="1021px" zoomAndPan="magnify"><defs/><g><text fill="#000000" font-family="sans-serif" font-size="18" font-weight="bold" lengthAdjust="spacingAndGlyphs" textLength="531" x="240.5" y="26.708">Diagrama de Secuencia — Ciclo de Riego Automático</text><text fill="#000000" font-family="sans-serif" font-size="18" font-style="italic" lengthAdjust="spacingAndGlyphs" textLength="446" x="283" y="47.6611">SARQUE — Activación de electroválvula y registro</text><rect fill="#E3F2FD" height="129.5313" style="stroke: #1976D2; stroke-width: 1.0;" width="10" x="261.5" y="227.6016"/><rect fill="#E3F2FD" height="86.3984" style="stroke: #1976D2; stroke-width: 1.0;" width="10" x="261.5" y="771.125"/><rect fill="#E3F2FD" height="29.1328" style="stroke: #1976D2; stroke-width: 1.0;" width="10" x="261.5" y="1140.8516"/><rect fill="#E3F2FD" height="29.1328" style="stroke: #1976D2; stroke-width: 1.0;" width="10" x="430.5" y="712.8594"/><rect fill="#E3F2FD" height="29.1328" style="stroke: #1976D2; stroke-width: 1.0;" width="10" x="430.5" y="1082.5859"/><rect fill="#E3F2FD" height="29.1328" style="stroke: #1976D2; stroke-width: 1.0;" width="10" x="554" y="401.3984"/><rect fill="#E3F2FD" height="29.1328" style="stroke: #1976D2; stroke-width: 1.0;" width="10" x="729" y="537.9297"/><rect fill="#E3F2FD" height="29.1328" style="stroke: #1976D2; stroke-width: 1.0;" width="10" x="729" y="964.9219"/><rect fill="#E3F2FD" height="246.1953" style="stroke: #1976D2; stroke-width: 1.0;" width="10" x="855" y="611.3281"/><rect fill="#E3F2FD" height="131.6641" style="stroke: #1976D2; stroke-width: 1.0;" width="10" x="855" y="1038.3203"/><line style="stroke: #1976D2; stroke-width: 1.0; stroke-dasharray: 5.0,5.0;" x1="58" x2="58" y1="138.2031" y2="1187.9844"/><line style="stroke: #1976D2; stroke-width: 1.0; stroke-dasharray: 5.0,5.0;" x1="266" x2="266" y1="138.2031" y2="1187.9844"/><line style="stroke: #1976D2; stroke-width: 1.0; stroke-dasharray: 5.0,5.0;" x1="435" x2="435" y1="138.2031" y2="1187.9844"/><line style="stroke: #1976D2; stroke-width: 1.0; stroke-dasharray: 5.0,5.0;" x1="559" x2="559" y1="138.2031" y2="1187.9844"/><line style="stroke: #1976D2; stroke-width: 1.0; stroke-dasharray: 5.0,5.0;" x1="733.5" x2="733.5" y1="138.2031" y2="1187.9844"/><line style="stroke: #1976D2; stroke-width: 1.0; stroke-dasharray: 5.0,5.0;" x1="859.5" x2="859.5" y1="138.2031" y2="1187.9844"/><text fill="#000000" font-family="sans-serif" font-size="14" lengthAdjust="spacingAndGlyphs" textLength="95" x="8" y="134.9014">Administrador</text><ellipse cx="58.5" cy="68.9063" fill="#C8E6C9" rx="8" ry="8" style="stroke: #2E7D32; stroke-width: 2.0;"/><path d="M58.5,76.9063 L58.5,103.9063 M45.5,84.9063 L71.5,84.9063 M58.5,103.9063 L45.5,118.9063 M58.5,103.9063 L71.5,118.9063 " fill="none" style="stroke: #2E7D32; stroke-width: 2.0;"/><text fill="#000000" font-family="sans-serif" font-size="14" lengthAdjust="spacingAndGlyphs" textLength="95" x="8" y="1199.9795">Administrador</text><ellipse cx="58.5" cy="1213.2813" fill="#C8E6C9" rx="8" ry="8" style="stroke: #2E7D32; stroke-width: 2.0;"/><path d="M58.5,1221.2813 L58.5,1248.2813 M45.5,1229.2813 L71.5,1229.2813 M58.5,1248.2813 L45.5,1263.2813 M58.5,1248.2813 L71.5,1263.2813 " fill="none" style="stroke: #2E7D32; stroke-width: 2.0;"/><rect fill="#BBDEFB" height="46.5938" style="stroke: #1565C0; stroke-width: 1.5;" width="85" x="224" y="90.6094"/><text fill="#000000" font-family="sans-serif" font-size="14" font-weight="bold" lengthAdjust="spacingAndGlyphs" textLength="71" x="231" y="110.6045">App Web</text><text fill="#000000" font-family="sans-serif" font-size="14" font-weight="bold" lengthAdjust="spacingAndGlyphs" textLength="63" x="235" y="126.9014">SARQUE</text><rect fill="#BBDEFB" height="46.5938" style="stroke: #1565C0; stroke-width: 1.5;" width="85" x="224" y="1186.9844"/><text fill="#000000" font-family="sans-serif" font-size="14" font-weight="bold" lengthAdjust="spacingAndGlyphs" textLength="71" x="231" y="1206.9795">App Web</text><text fill="#000000" font-family="sans-serif" font-size="14" font-weight="bold" lengthAdjust="spacingAndGlyphs" textLength="63" x="235" y="1223.2764">SARQUE</text><rect fill="#BBDEFB" height="46.5938" style="stroke: #1565C0; stroke-width: 1.5;" width="119" x="376" y="90.6094"/><text fill="#000000" font-family="sans-serif" font-size="14" font-weight="bold" lengthAdjust="spacingAndGlyphs" textLength="77" x="397" y="110.6045">Supabase</text><text fill="#000000" font-family="sans-serif" font-size="14" font-weight="bold" lengthAdjust="spacingAndGlyphs" textLength="105" x="383" y="126.9014">(PostgreSQL)</text><rect fill="#BBDEFB" height="46.5938" style="stroke: #1565C0; stroke-width: 1.5;" width="119" x="376" y="1186.9844"/><text fill="#000000" font-family="sans-serif" font-size="14" font-weight="bold" lengthAdjust="spacingAndGlyphs" textLength="77" x="397" y="1206.9795">Supabase</text><text fill="#000000" font-family="sans-serif" font-size="14" font-weight="bold" lengthAdjust="spacingAndGlyphs" textLength="105" x="383" y="1223.2764">(PostgreSQL)</text><rect fill="#BBDEFB" height="46.5938" style="stroke: #1565C0; stroke-width: 1.5;" width="108" x="505" y="90.6094"/><text fill="#000000" font-family="sans-serif" font-size="14" font-weight="bold" lengthAdjust="spacingAndGlyphs" textLength="94" x="512" y="110.6045">Controlador</text><text fill="#000000" font-family="sans-serif" font-size="14" font-weight="bold" lengthAdjust="spacingAndGlyphs" textLength="46" x="536" y="126.9014">BL-KR</text><rect fill="#BBDEFB" height="46.5938" style="stroke: #1565C0; stroke-width: 1.5;" width="108" x="505" y="1186.9844"/><text fill="#000000" font-family="sans-serif" font-size="14" font-weight="bold" lengthAdjust="spacingAndGlyphs" textLength="94" x="512" y="1206.9795">Controlador</text><text fill="#000000" font-family="sans-serif" font-size="14" font-weight="bold" lengthAdjust="spacingAndGlyphs" textLength="46" x="536" y="1223.2764">BL-KR</text><rect fill="#BBDEFB" height="30.2969" style="stroke: #1565C0; stroke-width: 1.5;" width="123" x="672.5" y="106.9063"/><text fill="#000000" font-family="sans-serif" font-size="14" font-weight="bold" lengthAdjust="spacingAndGlyphs" textLength="109" x="679.5" y="126.9014">Electroválvula</text><rect fill="#BBDEFB" height="30.2969" style="stroke: #1565C0; stroke-width: 1.5;" width="123" x="672.5" y="1186.9844"/><text fill="#000000" font-family="sans-serif" font-size="14" font-weight="bold" lengthAdjust="spacingAndGlyphs" textLength="109" x="679.5" y="1206.9795">Electroválvula</text><rect fill="#BBDEFB" height="30.2969" style="stroke: #1565C0; stroke-width: 1.5;" width="109" x="805.5" y="106.9063"/><text fill="#000000" font-family="sans-serif" font-size="14" font-weight="bold" lengthAdjust="spacingAndGlyphs" textLength="95" x="812.5" y="126.9014">Nodo ESP32</text><rect fill="#BBDEFB" height="30.2969" style="stroke: #1565C0; stroke-width: 1.5;" width="109" x="805.5" y="1186.9844"/><text fill="#000000" font-family="sans-serif" font-size="14" font-weight="bold" lengthAdjust="spacingAndGlyphs" textLength="95" x="812.5" y="1206.9795">Nodo ESP32</text><rect fill="#E3F2FD" height="129.5313" style="stroke: #1976D2; stroke-width: 1.0;" width="10" x="261.5" y="227.6016"/><rect fill="#E3F2FD" height="86.3984" style="stroke: #1976D2; stroke-width: 1.0;" width="10" x="261.5" y="771.125"/><rect fill="#E3F2FD" height="29.1328" style="stroke: #1976D2; stroke-width: 1.0;" width="10" x="261.5" y="1140.8516"/><rect fill="#E3F2FD" height="29.1328" style="stroke: #1976D2; stroke-width: 1.0;" width="10" x="430.5" y="712.8594"/><rect fill="#E3F2FD" height="29.1328" style="stroke: #1976D2; stroke-width: 1.0;" width="10" x="430.5" y="1082.5859"/><rect fill="#E3F2FD" height="29.1328" style="stroke: #1976D2; stroke-width: 1.0;" width="10" x="554" y="401.3984"/><rect fill="#E3F2FD" height="29.1328" style="stroke: #1976D2; stroke-width: 1.0;" width="10" x="729" y="537.9297"/><rect fill="#E3F2FD" height="29.1328" style="stroke: #1976D2; stroke-width: 1.0;" width="10" x="729" y="964.9219"/><rect fill="#E3F2FD" height="246.1953" style="stroke: #1976D2; stroke-width: 1.0;" width="10" x="855" y="611.3281"/><rect fill="#E3F2FD" height="131.6641" style="stroke: #1976D2; stroke-width: 1.0;" width="10" x="855" y="1038.3203"/><rect fill="#EEEEEE" height="3" style="stroke: #EEEEEE; stroke-width: 1.0;" width="1006" x="3" y="168.7695"/><line style="stroke: #000000; stroke-width: 1.0;" x1="3" x2="1009" y1="168.7695" y2="168.7695"/><line style="stroke: #000000; stroke-width: 1.0;" x1="3" x2="1009" y1="171.7695" y2="171.7695"/><rect fill="#EEEEEE" height="23.1328" style="stroke: #000000; stroke-width: 2.0;" width="169" x="421.5" y="158.2031"/><text fill="#000000" font-family="sans-serif" font-size="13" font-weight="bold" lengthAdjust="spacingAndGlyphs" textLength="150" x="427.5" y="174.27">Programación inicial</text><polygon fill="#424242" points="249.5,223.6016,259.5,227.6016,249.5,231.6016,253.5,227.6016" style="stroke: #424242; stroke-width: 1.0;"/><line style="stroke: #424242; stroke-width: 1.0;" x1="58.5" x2="255.5" y1="227.6016" y2="227.6016"/><text fill="#000000" font-family="sans-serif" font-size="13" lengthAdjust="spacingAndGlyphs" textLength="84" x="65.5" y="207.4028">Crear horario</text><text fill="#000000" font-family="sans-serif" font-size="13" lengthAdjust="spacingAndGlyphs" textLength="150" x="65.5" y="222.5356">(sector, hora, duración)</text><line style="stroke: #424242; stroke-width: 1.0;" x1="271.5" x2="313.5" y1="256.7344" y2="256.7344"/><line style="stroke: #424242; stroke-width: 1.0;" x1="313.5" x2="313.5" y1="256.7344" y2="269.7344"/><line style="stroke: #424242; stroke-width: 1.0;" x1="272.5" x2="313.5" y1="269.7344" y2="269.7344"/><polygon fill="#424242" points="282.5,265.7344,272.5,269.7344,282.5,273.7344,278.5,269.7344" style="stroke: #424242; stroke-width: 1.0;"/><text fill="#000000" font-family="sans-serif" font-size="13" lengthAdjust="spacingAndGlyphs" textLength="101" x="278.5" y="251.6685">Validar con Zod</text><polygon fill="#424242" points="423.5,294.8672,433.5,298.8672,423.5,302.8672,427.5,298.8672" style="stroke: #424242; stroke-width: 1.0;"/><line style="stroke: #424242; stroke-width: 1.0;" x1="271.5" x2="429.5" y1="298.8672" y2="298.8672"/><text fill="#000000" font-family="sans-serif" font-size="13" lengthAdjust="spacingAndGlyphs" textLength="140" x="278.5" y="293.8013">INSERT horarios_riego</text><polygon fill="#424242" points="282.5,324,272.5,328,282.5,332,278.5,328" style="stroke: #424242; stroke-width: 1.0;"/><line style="stroke: #424242; stroke-width: 1.0; stroke-dasharray: 2.0,2.0;" x1="276.5" x2="434.5" y1="328" y2="328"/><text fill="#000000" font-family="sans-serif" font-size="13" lengthAdjust="spacingAndGlyphs" textLength="18" x="288.5" y="322.9341">OK</text><polygon fill="#424242" points="69.5,353.1328,59.5,357.1328,69.5,361.1328,65.5,357.1328" style="stroke: #424242; stroke-width: 1.0;"/><line style="stroke: #424242; stroke-width: 1.0; stroke-dasharray: 2.0,2.0;" x1="63.5" x2="265.5" y1="357.1328" y2="357.1328"/><text fill="#000000" font-family="sans-serif" font-size="13" lengthAdjust="spacingAndGlyphs" textLength="112" x="75.5" y="352.0669">Horario guardado</text><polygon fill="#424242" points="542,397.3984,552,401.3984,542,405.3984,546,401.3984" style="stroke: #424242; stroke-width: 1.0;"/><line style="stroke: #424242; stroke-width: 1.0;" x1="58.5" x2="548" y1="401.3984" y2="401.3984"/><text fill="#000000" font-family="sans-serif" font-size="13" lengthAdjust="spacingAndGlyphs" textLength="90" x="65.5" y="381.1997">Programar vía</text><text fill="#000000" font-family="sans-serif" font-size="13" lengthAdjust="spacingAndGlyphs" textLength="84" x="65.5" y="396.3325">app K-RainBL</text><polygon fill="#424242" points="69.5,426.5313,59.5,430.5313,69.5,434.5313,65.5,430.5313" style="stroke: #424242; stroke-width: 1.0;"/><line style="stroke: #424242; stroke-width: 1.0; stroke-dasharray: 2.0,2.0;" x1="63.5" x2="558" y1="430.5313" y2="430.5313"/><text fill="#000000" font-family="sans-serif" font-size="13" lengthAdjust="spacingAndGlyphs" textLength="119" x="75.5" y="425.4653">Programa cargado</text><rect fill="#EEEEEE" height="3" style="stroke: #EEEEEE; stroke-width: 1.0;" width="1006" x="3" y="459.0977"/><line style="stroke: #000000; stroke-width: 1.0;" x1="3" x2="1009" y1="459.0977" y2="459.0977"/><line style="stroke: #000000; stroke-width: 1.0;" x1="3" x2="1009" y1="462.0977" y2="462.0977"/><rect fill="#EEEEEE" height="23.1328" style="stroke: #000000; stroke-width: 2.0;" width="259" x="376.5" y="448.5313"/><text fill="#000000" font-family="sans-serif" font-size="13" font-weight="bold" lengthAdjust="spacingAndGlyphs" textLength="240" x="382.5" y="464.5981">Ejecución del riego (automático)</text><path d="M466,486.6641 L466,511.6641 L652,511.6641 L652,496.6641 L642,486.6641 L466,486.6641 " fill="#FBFB77" style="stroke: #A80036; stroke-width: 1.0;"/><path d="M642,486.6641 L642,496.6641 L652,496.6641 L642,486.6641 " fill="#FBFB77" style="stroke: #A80036; stroke-width: 1.0;"/><text fill="#000000" font-family="sans-serif" font-size="13" lengthAdjust="spacingAndGlyphs" textLength="165" x="472" y="503.731">Llega la hora programada</text><polygon fill="#424242" points="717,533.9297,727,537.9297,717,541.9297,721,537.9297" style="stroke: #424242; stroke-width: 1.0;"/><line style="stroke: #424242; stroke-width: 1.0;" x1="559" x2="723" y1="537.9297" y2="537.9297"/><text fill="#000000" font-family="sans-serif" font-size="13" lengthAdjust="spacingAndGlyphs" textLength="151" x="566" y="532.8638">Pulso DC (+) [apertura]</text><polygon fill="#424242" points="570,563.0625,560,567.0625,570,571.0625,566,567.0625" style="stroke: #424242; stroke-width: 1.0;"/><line style="stroke: #424242; stroke-width: 1.0; stroke-dasharray: 2.0,2.0;" x1="564" x2="733" y1="567.0625" y2="567.0625"/><text fill="#000000" font-family="sans-serif" font-size="13" lengthAdjust="spacingAndGlyphs" textLength="97" x="576" y="561.9966">Estado: abierta</text><line style="stroke: #424242; stroke-width: 1.0;" x1="853" x2="843" y1="611.3281" y2="607.3281"/><line style="stroke: #424242; stroke-width: 1.0;" x1="853" x2="843" y1="611.3281" y2="615.3281"/><line style="stroke: #424242; stroke-width: 1.0; stroke-dasharray: 2.0,2.0;" x1="559" x2="854" y1="611.3281" y2="611.3281"/><text fill="#000000" font-family="sans-serif" font-size="13" lengthAdjust="spacingAndGlyphs" textLength="102" x="566" y="591.1294">Notificación BLE</text><text fill="#000000" font-family="sans-serif" font-size="13" lengthAdjust="spacingAndGlyphs" textLength="84" x="566" y="606.2622">(GATT Notify)</text><line style="stroke: #424242; stroke-width: 1.0;" x1="865" x2="907" y1="655.5938" y2="655.5938"/><line style="stroke: #424242; stroke-width: 1.0;" x1="907" x2="907" y1="655.5938" y2="668.5938"/><line style="stroke: #424242; stroke-width: 1.0;" x1="866" x2="907" y1="668.5938" y2="668.5938"/><polygon fill="#424242" points="876,664.5938,866,668.5938,876,672.5938,872,668.5938" style="stroke: #424242; stroke-width: 1.0;"/><text fill="#000000" font-family="sans-serif" font-size="13" lengthAdjust="spacingAndGlyphs" textLength="125" x="872" y="635.395">Decodificar payload</text><text fill="#000000" font-family="sans-serif" font-size="13" lengthAdjust="spacingAndGlyphs" textLength="116" x="872" y="650.5278">(estación, evento)</text><polygon fill="#424242" points="451.5,708.8594,441.5,712.8594,451.5,716.8594,447.5,712.8594" style="stroke: #424242; stroke-width: 1.0;"/><line style="stroke: #424242; stroke-width: 1.0;" x1="445.5" x2="854" y1="712.8594" y2="712.8594"/><text fill="#000000" font-family="sans-serif" font-size="13" lengthAdjust="spacingAndGlyphs" textLength="131" x="457.5" y="692.6606">POST /historial_riego</text><text fill="#000000" font-family="sans-serif" font-size="13" lengthAdjust="spacingAndGlyphs" textLength="219" x="457.5" y="707.7935">{sector, inicio, tipo: "automatico"}</text><polygon fill="#424242" points="843,737.9922,853,741.9922,843,745.9922,847,741.9922" style="stroke: #424242; stroke-width: 1.0;"/><line style="stroke: #424242; stroke-width: 1.0; stroke-dasharray: 2.0,2.0;" x1="435.5" x2="849" y1="741.9922" y2="741.9922"/><text fill="#000000" font-family="sans-serif" font-size="13" lengthAdjust="spacingAndGlyphs" textLength="79" x="442.5" y="736.9263">201 Created</text><line style="stroke: #424242; stroke-width: 1.0;" x1="271.5" x2="281.5" y1="771.125" y2="767.125"/><line style="stroke: #424242; stroke-width: 1.0;" x1="271.5" x2="281.5" y1="771.125" y2="775.125"/><line style="stroke: #424242; stroke-width: 1.0; stroke-dasharray: 2.0,2.0;" x1="271.5" x2="434.5" y1="771.125" y2="771.125"/><text fill="#000000" font-family="sans-serif" font-size="13" lengthAdjust="spacingAndGlyphs" textLength="91" x="288.5" y="766.0591">Realtime push</text><line style="stroke: #424242; stroke-width: 1.0;" x1="271.5" x2="313.5" y1="815.3906" y2="815.3906"/><line style="stroke: #424242; stroke-width: 1.0;" x1="313.5" x2="313.5" y1="815.3906" y2="828.3906"/><line style="stroke: #424242; stroke-width: 1.0;" x1="272.5" x2="313.5" y1="828.3906" y2="828.3906"/><polygon fill="#424242" points="282.5,824.3906,272.5,828.3906,282.5,832.3906,278.5,828.3906" style="stroke: #424242; stroke-width: 1.0;"/><text fill="#000000" font-family="sans-serif" font-size="13" lengthAdjust="spacingAndGlyphs" textLength="135" x="278.5" y="795.1919">Actualizar dashboard</text><text fill="#000000" font-family="sans-serif" font-size="13" lengthAdjust="spacingAndGlyphs" textLength="128" x="278.5" y="810.3247">(estado: "Regando")</text><polygon fill="#424242" points="69.5,853.5234,59.5,857.5234,69.5,861.5234,65.5,857.5234" style="stroke: #424242; stroke-width: 1.0;"/><line style="stroke: #424242; stroke-width: 1.0; stroke-dasharray: 2.0,2.0;" x1="63.5" x2="265.5" y1="857.5234" y2="857.5234"/><text fill="#000000" font-family="sans-serif" font-size="13" lengthAdjust="spacingAndGlyphs" textLength="179" x="75.5" y="852.4575">Visualización en tiempo real</text><rect fill="#EEEEEE" height="3" style="stroke: #EEEEEE; stroke-width: 1.0;" width="1006" x="3" y="886.0898"/><line style="stroke: #000000; stroke-width: 1.0;" x1="3" x2="1009" y1="886.0898" y2="886.0898"/><line style="stroke: #000000; stroke-width: 1.0;" x1="3" x2="1009" y1="889.0898" y2="889.0898"/><rect fill="#EEEEEE" height="23.1328" style="stroke: #000000; stroke-width: 2.0;" width="174" x="419" y="875.5234"/><text fill="#000000" font-family="sans-serif" font-size="13" font-weight="bold" lengthAdjust="spacingAndGlyphs" textLength="155" x="425" y="891.5903">Fin del ciclo de riego</text><path d="M451,913.6563 L451,938.6563 L666,938.6563 L666,923.6563 L656,913.6563 L451,913.6563 " fill="#FBFB77" style="stroke: #A80036; stroke-width: 1.0;"/><path d="M656,913.6563 L656,923.6563 L666,923.6563 L656,913.6563 " fill="#FBFB77" style="stroke: #A80036; stroke-width: 1.0;"/><text fill="#000000" font-family="sans-serif" font-size="13" lengthAdjust="spacingAndGlyphs" textLength="194" x="457" y="930.7231">Termina duración programada</text><polygon fill="#424242" points="717,960.9219,727,964.9219,717,968.9219,721,964.9219" style="stroke: #424242; stroke-width: 1.0;"/><line style="stroke: #424242; stroke-width: 1.0;" x1="559" x2="723" y1="964.9219" y2="964.9219"/><text fill="#000000" font-family="sans-serif" font-size="13" lengthAdjust="spacingAndGlyphs" textLength="126" x="566" y="959.856">Pulso DC (-) [cierre]</text><polygon fill="#424242" points="570,990.0547,560,994.0547,570,998.0547,566,994.0547" style="stroke: #424242; stroke-width: 1.0;"/><line style="stroke: #424242; stroke-width: 1.0; stroke-dasharray: 2.0,2.0;" x1="564" x2="733" y1="994.0547" y2="994.0547"/><text fill="#000000" font-family="sans-serif" font-size="13" lengthAdjust="spacingAndGlyphs" textLength="101" x="576" y="988.9888">Estado: cerrada</text><line style="stroke: #424242; stroke-width: 1.0;" x1="853" x2="843" y1="1038.3203" y2="1034.3203"/><line style="stroke: #424242; stroke-width: 1.0;" x1="853" x2="843" y1="1038.3203" y2="1042.3203"/><line style="stroke: #424242; stroke-width: 1.0; stroke-dasharray: 2.0,2.0;" x1="559" x2="854" y1="1038.3203" y2="1038.3203"/><text fill="#000000" font-family="sans-serif" font-size="13" lengthAdjust="spacingAndGlyphs" textLength="102" x="566" y="1018.1216">Notificación BLE</text><text fill="#000000" font-family="sans-serif" font-size="13" lengthAdjust="spacingAndGlyphs" textLength="46" x="566" y="1033.2544">(cierre)</text><polygon fill="#424242" points="451.5,1078.5859,441.5,1082.5859,451.5,1086.5859,447.5,1082.5859" style="stroke: #424242; stroke-width: 1.0;"/><line style="stroke: #424242; stroke-width: 1.0;" x1="445.5" x2="854" y1="1082.5859" y2="1082.5859"/><text fill="#000000" font-family="sans-serif" font-size="13" lengthAdjust="spacingAndGlyphs" textLength="140" x="457.5" y="1062.3872">PATCH /historial_riego</text><text fill="#000000" font-family="sans-serif" font-size="13" lengthAdjust="spacingAndGlyphs" textLength="226" x="457.5" y="1077.52">{fin, duracion_real, volumen_litros}</text><polygon fill="#424242" points="843,1107.7188,853,1111.7188,843,1115.7188,847,1111.7188" style="stroke: #424242; stroke-width: 1.0;"/><line style="stroke: #424242; stroke-width: 1.0; stroke-dasharray: 2.0,2.0;" x1="435.5" x2="849" y1="1111.7188" y2="1111.7188"/><text fill="#000000" font-family="sans-serif" font-size="13" lengthAdjust="spacingAndGlyphs" textLength="46" x="442.5" y="1106.6528">200 OK</text><line style="stroke: #424242; stroke-width: 1.0;" x1="271.5" x2="281.5" y1="1140.8516" y2="1136.8516"/><line style="stroke: #424242; stroke-width: 1.0;" x1="271.5" x2="281.5" y1="1140.8516" y2="1144.8516"/><line style="stroke: #424242; stroke-width: 1.0; stroke-dasharray: 2.0,2.0;" x1="271.5" x2="434.5" y1="1140.8516" y2="1140.8516"/><text fill="#000000" font-family="sans-serif" font-size="13" lengthAdjust="spacingAndGlyphs" textLength="91" x="288.5" y="1135.7856">Realtime push</text><polygon fill="#424242" points="69.5,1165.9844,59.5,1169.9844,69.5,1173.9844,65.5,1169.9844" style="stroke: #424242; stroke-width: 1.0;"/><line style="stroke: #424242; stroke-width: 1.0; stroke-dasharray: 2.0,2.0;" x1="63.5" x2="265.5" y1="1169.9844" y2="1169.9844"/><text fill="#000000" font-family="sans-serif" font-size="13" lengthAdjust="spacingAndGlyphs" textLength="115" x="75.5" y="1164.9185">Riego completado</text><!--MD5=[5ed08ee5b9767e3958cf6e359d74556c]
@startuml Secuencia_SARQUE
skinparam backgroundColor #FFFFFF
skinparam sequence {
  ArrowColor #424242
  LifeLineBorderColor #1976D2
  LifeLineBackgroundColor #E3F2FD
  ParticipantBorderColor #1565C0
  ParticipantBackgroundColor #BBDEFB
  ParticipantFontStyle bold
  ActorBorderColor #2E7D32
  ActorBackgroundColor #C8E6C9
}
skinparam shadowing false

title <b>Diagrama de Secuencia — Ciclo de Riego Automático</b>\n<i>SARQUE — Activación de electroválvula y registro</i>

actor "Administrador" as Admin
participant "App Web\nSARQUE" as Web
participant "Supabase\n(PostgreSQL)" as DB
participant "Controlador\nBL-KR" as BLKR
participant "Electroválvula" as EV
participant "Nodo ESP32" as ESP

== Programación inicial ==

Admin -> Web : Crear horario\n(sector, hora, duración)
activate Web
Web -> Web : Validar con Zod
Web -> DB : INSERT horarios_riego
DB - -> Web : OK
Web - -> Admin : Horario guardado
deactivate Web

Admin -> BLKR : Programar vía\napp K-RainBL
activate BLKR
BLKR - -> Admin : Programa cargado
deactivate BLKR

== Ejecución del riego (automático) ==

note over BLKR : Llega la hora programada

BLKR -> EV : Pulso DC (+) [apertura]
activate EV
EV - -> BLKR : Estado: abierta
deactivate EV

BLKR - ->> ESP : Notificación BLE\n(GATT Notify)
activate ESP
ESP -> ESP : Decodificar payload\n(estación, evento)

ESP -> DB : POST /historial_riego\n{sector, inicio, tipo: "automatico"}
activate DB
DB - -> ESP : 201 Created
deactivate DB

DB - ->> Web : Realtime push
activate Web
Web -> Web : Actualizar dashboard\n(estado: "Regando")
Web - -> Admin : Visualización en tiempo real
deactivate Web

deactivate ESP

== Fin del ciclo de riego ==

note over BLKR : Termina duración programada

BLKR -> EV : Pulso DC (-) [cierre]
activate EV
EV - -> BLKR : Estado: cerrada
deactivate EV

BLKR - ->> ESP : Notificación BLE\n(cierre)
activate ESP
ESP -> DB : PATCH /historial_riego\n{fin, duracion_real, volumen_litros}
activate DB
DB - -> ESP : 200 OK
deactivate DB

DB - ->> Web : Realtime push
activate Web
Web - -> Admin : Riego completado
deactivate Web
deactivate ESP

@enduml

PlantUML version 1.2020.02(Sun Mar 01 10:22:07 UTC 2020)
(GPL source distribution)
Java Runtime: OpenJDK Runtime Environment
JVM: OpenJDK 64-Bit Server VM
Java Version: 21.0.10+7-Ubuntu-124.04
Operating System: Linux
Default Encoding: UTF-8
Language: en
Country: US
--></g></svg>